<svg version="1" xmlns="http://www.w3.org/2000/svg" width="933.333" height="933.333" viewBox="0 0 700.000000 700.000000"><path d="M0 350v350h700V0H0v350zm196-148.7v12.3l-8.9 1.3c-11.4 1.6-19.3 5.3-24.8 11.5-7.4 8.4-7.5 9.3-8.3 51.6-.4 22.2-1.1 38.7-1.7 40.5-5.4 15.2-15.2 24-31.6 28.5-3.3.9-6.2 2.1-6.4 2.7-.2.6 2 1.6 4.9 2.3 11.9 2.8 22.2 9.3 27.7 17.7 6.2 9.3 6.4 11.1 7.1 52.3.5 30.8.9 38.3 2.2 41.8 4.8 12.9 14.5 19.2 32.3 21l7 .7.3 11.9c.1 6.6-.1 12.3-.5 12.7-.4.4-5.2.3-10.6-.2-26.8-2.3-46.1-13.4-54.6-31.3-2.2-4.5-4.4-11.1-5-14.7-.6-3.8-1.1-20.2-1.1-39 0-35.3-.6-40.7-5.4-47.9-5-7.6-16.2-12.7-30.3-13.7l-8.3-.6v-25.4l7.3-.6c14.9-1.2 25.7-5.8 31-13.3 5.2-7.3 5.7-11.7 5.7-48.4 0-37.3.7-42.7 6.2-54 8.9-18.4 33.4-31.2 60.6-31.9l5.2-.1v12.3zm330.3-9.7c24.3 4.6 40.4 18 47.3 39.4 1.5 4.7 1.8 11.1 2.4 44 .4 21.2 1 39.6 1.5 41 4.2 12.6 18.9 20.9 37.3 21h5.2V362.7l-7.7.6c-18.6 1.4-30.3 8.6-34.5 20.9-.7 2.1-1.4 17.8-1.8 41.8-.7 42.1-.9 43.2-7.3 55.3-3.7 7.1-13.1 16.1-21.5 20.5-7.6 4.1-21.8 7.8-33.4 8.7l-8.8.7v-12.5c0-13.8-.1-13.7 6.8-13.7 8-.1 19.8-4.4 25-9.3 3.9-3.6 7.2-11.3 8.2-19 .5-3.9 1-21.2 1-38.2 0-22.8.4-32.3 1.4-36 4.2-15.7 12.9-24 30.6-29.1 4.1-1.2 7.6-2.6 7.8-3.2.2-.6-1.6-1.6-4-2.2-16.3-4.1-25.5-10.6-31.3-22-4.3-8.5-4.7-12-5.4-50.6l-.6-37-3-5.9c-4.9-9.5-14.8-15.7-27.5-17.1-9.8-1.1-9 .2-9-13.9v-12.6l6.8.6c3.7.4 10.2 1.3 14.5 2.1zM327.9 319.2c11.9 40.6 22 74 22.3 74.4.4.3 1.5-2 2.4-5.2.9-3.3 10.6-36.7 21.4-74.4l19.7-68.5 37.7-.3 37.6-.2v210l-25.7-.2-25.8-.3V400c0-30 .4-64 .9-75.5.4-11.6.6-20.8.2-20.4-.5.4-42.6 149.2-42.6 150.5 0 .2-12.1.4-26.9.4-24.7 0-26.9-.1-27.3-1.7-3.3-12-42.2-148.9-42.5-149.2-1.1-1.4-1.1 2.7.2 21.4 1 14.2 1.5 38.5 1.5 74.7V454h-50V245l37.6.2 37.6.3 21.7 73.7z"/></svg>